<?xml version="1.0" standalone="no"?>
<!DOCTYPE svg PUBLIC "-//W3C//DTD SVG 20010904//EN"
 "http://www.w3.org/TR/2001/REC-SVG-20010904/DTD/svg10.dtd">
<svg version="1.0" xmlns="http://www.w3.org/2000/svg"
 width="512.000000pt" height="512.000000pt" viewBox="0 0 512.000000 512.000000"
 preserveAspectRatio="xMidYMid meet">
<metadata>
Created by potrace 1.16, written by Peter Selinger 2001-2019
</metadata>
<g transform="translate(0.000000,512.000000) scale(0.100000,-0.100000)"
fill="#000000" stroke="none">
<path d="M2595 5105 c-209 -40 -378 -104 -533 -202 -361 -229 -599 -583 -677
-1010 -11 -59 -18 -175 -22 -349 -6 -284 -2 -322 43 -343 34 -15 464 -15 498
0 13 7 29 23 35 38 5 14 12 143 14 286 5 298 14 351 92 510 252 511 899 658
1339 305 146 -118 260 -296 307 -480 20 -78 22 -116 26 -482 l5 -398 -1239 -2
-1238 -3 -67 -32 c-124 -58 -204 -162 -228 -293 -7 -36 -9 -503 -8 -1332 3
-1239 4 -1277 22 -1297 l19 -21 1849 0 c1817 0 1848 0 1867 19 11 11 23 35 26
53 3 18 4 607 3 1308 -4 1419 1 1312 -73 1424 -65 98 -171 160 -296 173 l-59
6 0 406 c0 438 -5 504 -55 676 -68 235 -180 427 -354 609 -207 215 -456 352
-761 421 -102 23 -437 29 -535 10z m1823 -2309 c52 -23 115 -92 130 -144 9
-29 12 -355 12 -1266 l0 -1226 -865 0 -865 0 0 65 0 64 394 3 394 3 27 25 27
25 -5 300 c-3 270 -6 307 -25 369 -63 204 -183 368 -349 476 -78 51 -195 104
-255 115 -45 8 -49 20 -10 30 76 19 194 115 259 211 114 170 116 412 4 580
-54 80 -68 95 -143 152 -74 56 -162 90 -255 99 l-63 6 0 62 c0 34 3 65 7 69 4
4 352 5 773 4 721 -3 767 -4 808 -22z m-1477 -292 c257 -77 357 -391 189 -602
-173 -220 -527 -174 -641 82 -130 294 145 611 452 520z m34 -1049 c194 -40
371 -178 459 -355 65 -133 76 -194 76 -442 l0 -208 -172 0 c-95 0 -399 3 -675
7 l-503 6 0 197 c0 108 5 223 11 256 15 83 54 178 106 256 145 221 434 338
698 283z"/>
<path d="M653 3840 c-28 -11 -46 -46 -45 -84 1 -24 24 -53 123 -152 127 -127
158 -146 201 -123 34 18 47 40 48 77 0 29 -14 48 -112 149 -137 140 -161 155
-215 133z"/>
<path d="M421 3346 c-25 -26 -30 -70 -12 -104 19 -36 72 -44 260 -40 l173 3
24 28 c13 15 24 37 24 48 0 28 -26 75 -45 83 -9 3 -103 6 -209 6 -190 0 -193
0 -215 -24z"/>
<path d="M734 2979 c-67 -67 -125 -132 -128 -145 -7 -28 9 -73 32 -90 9 -8 32
-14 51 -14 30 0 47 13 148 113 63 61 121 125 129 140 31 58 -7 117 -75 117
-30 0 -48 -14 -157 -121z"/>
</g>
</svg>
